<svg width="270" height="49" viewBox="0 0 270 49" fill="none" xmlns="http://www.w3.org/2000/svg"><path d="M127.847 21.278v-1.76c-2.544-.069-4.451-.755-5.818-2.082a6.463 6.463 0 0 1-2.016-4.809c0-3.455 2.473-6.796 7.834-6.93V4.186h2.544v1.511c5.36.134 7.859 3.43 7.859 6.911 0 3.48-2.499 6.771-7.859 6.91v1.76h-2.544zm0-13.338c-1.742 0-3.046.482-3.943 1.372a4.91 4.91 0 0 0 0 6.663c.897.889 2.201 1.327 3.943 1.346V7.94zm2.544 9.381c1.742 0 3.045-.457 3.942-1.346a4.843 4.843 0 0 0 0-6.663c-.897-.89-2.2-1.347-3.942-1.372v9.381zm19.668 3.411V4.713h6.893a5.542 5.542 0 0 1 3.917 1.302 4.26 4.26 0 0 1 1.443 3.341 4.481 4.481 0 0 1-1.443 3.436 5.466 5.466 0 0 1-3.917 1.322h-4.375v6.618h-2.518zm2.543-8.892h4.172c1.907 0 3.02-.87 3.02-2.408 0-1.537-1.119-2.375-3.02-2.375h-4.172v4.783zm29.892 9.19a7.89 7.89 0 0 1-5.863-2.381 8.723 8.723 0 0 1-2.315-5.917c0-2.192.827-4.305 2.315-5.917a8.353 8.353 0 0 1 11.726 0 8.654 8.654 0 0 1 0 11.834 7.89 7.89 0 0 1-5.863 2.382zm0-2.356a5.336 5.336 0 0 0 3.987-1.696 5.993 5.993 0 0 0 1.628-4.256 5.901 5.901 0 0 0-1.628-4.236 5.486 5.486 0 0 0-3.987-1.715 5.495 5.495 0 0 0-3.987 1.715 5.886 5.886 0 0 0-1.603 4.236 5.971 5.971 0 0 0 1.603 4.256 5.319 5.319 0 0 0 3.987 1.696zm20.311 2.058V4.712h7.281c2.868 0 4.718 1.462 4.718 3.939a3.376 3.376 0 0 1-2.13 3.29 4.133 4.133 0 0 1 3.414 4.281 4.056 4.056 0 0 1-1.462 3.271 5.856 5.856 0 0 1-3.943 1.239h-7.878zm2.543-9.566h4.331c1.672 0 2.658-.73 2.658-2.083 0-1.353-.986-2.058-2.658-2.058h-4.331v4.141zm0 7.254h4.878c1.945 0 3.135-.94 3.135-2.54 0-1.601-1.145-2.472-3.135-2.472h-4.903l.025 5.012zm30.911 2.61a7.886 7.886 0 0 1-5.863-2.381 8.722 8.722 0 0 1 0-11.834 8.356 8.356 0 0 1 11.726 0 8.65 8.65 0 0 1 0 11.834 7.877 7.877 0 0 1-5.863 2.382zm0-2.356a5.34 5.34 0 0 0 3.987-1.696 5.993 5.993 0 0 0 1.628-4.256 5.9 5.9 0 0 0-1.628-4.236 5.493 5.493 0 0 0-7.974 0 5.883 5.883 0 0 0-1.602 4.236 5.975 5.975 0 0 0 1.602 4.256 5.328 5.328 0 0 0 3.987 1.696zm20.165 2.058V4.713h2.543v11.763l8.82-11.763H270v16.019h-2.543V8.924l-8.903 11.808h-2.13zM259.107 0h2.105a1.792 1.792 0 0 0 1.198 1.778c.242.085.499.118.754.096a1.834 1.834 0 0 0 1.828-1.128 1.83 1.83 0 0 0 .137-.746h2.111c0 2.312-1.742 3.773-4.057 3.773-2.314 0-4.05-1.461-4.076-3.773zM67.373 48.705V32.686h13.036v16.02H77.89V34.997h-7.994v13.707h-2.524zm27.158 0V32.686h6.9a5.544 5.544 0 0 1 3.917 1.27 4.26 4.26 0 0 1 1.443 3.341 4.481 4.481 0 0 1-1.443 3.437 5.467 5.467 0 0 1-3.917 1.32h-4.394v6.62l-2.506.031zm2.544-8.924h4.165c1.908 0 3.027-.87 3.027-2.407 0-1.538-1.126-2.376-3.027-2.376h-4.203l.038 4.783zm31.953 9.216a7.92 7.92 0 0 1-5.869-2.376 8.74 8.74 0 0 1 0-11.833 8.366 8.366 0 0 1 11.732 0 8.667 8.667 0 0 1 0 11.834 7.892 7.892 0 0 1-5.863 2.375zm0-2.356a5.338 5.338 0 0 0 3.987-1.69 5.99 5.99 0 0 0 1.622-4.256 5.91 5.91 0 0 0-1.622-4.237 5.482 5.482 0 0 0-3.987-1.714 5.492 5.492 0 0 0-3.987 1.715 5.86 5.86 0 0 0-1.602 4.236 5.946 5.946 0 0 0 1.602 4.256 5.32 5.32 0 0 0 3.987 1.69zm21.031 2.064V32.686h6.893a5.544 5.544 0 0 1 3.917 1.27 4.261 4.261 0 0 1 1.443 3.341 4.481 4.481 0 0 1-1.443 3.437 5.467 5.467 0 0 1-3.917 1.32h-4.375v6.62l-2.518.031zm2.543-8.924h4.172c1.907 0 3.02-.87 3.02-2.407 0-1.538-1.119-2.376-3.02-2.376h-4.172v4.783zm21.443 8.924V32.686h2.543v5.539h3.593a6.264 6.264 0 0 1 4.401 1.46 5.256 5.256 0 0 1 1.195 5.849 5.256 5.256 0 0 1-1.195 1.73 6.307 6.307 0 0 1-4.375 1.441h-6.162zm2.543-2.312h3.46c2.264 0 3.573-1.073 3.573-2.909 0-1.836-1.354-2.947-3.573-2.947h-3.46v5.856zm11.777-13.707h2.544v16.02h-2.544v-16.02zm14.44 16.019V32.686h7.281c2.868 0 4.718 1.46 4.718 3.932a3.384 3.384 0 0 1-2.13 3.296 4.133 4.133 0 0 1 3.414 4.281 4.073 4.073 0 0 1-1.462 3.271 5.856 5.856 0 0 1-3.943 1.24h-7.878zm2.543-9.566h4.331c1.672 0 2.658-.736 2.658-2.083 0-1.346-.986-2.058-2.658-2.058h-4.331v4.141zm0 7.254h4.878c1.945 0 3.135-.94 3.135-2.54 0-1.601-1.145-2.471-3.135-2.471h-4.903l.025 5.011zM.642 8.054v-2.3l-.642.3v-.776l.738-.374h.705v3.15h-.8zm5.875 0v-2.3l-.642.3v-.776l.738-.374h.7v3.15h-.796zM.642 13.815v-2.293L0 11.814v-.775l.738-.374h.705v3.15h-.8zm5.875 0v-2.293l-.642.292v-.775l.738-.374h.7v3.15h-.796zm11.936.057a1.273 1.273 0 0 1-.763-.235 1.423 1.423 0 0 1-.477-.603 2.075 2.075 0 0 1-.152-.794 1.662 1.662 0 0 1 .636-1.398c.222-.16.49-.245.763-.241.272-.005.538.08.757.241.219.16.385.381.477.636.107.25.159.521.152.793a1.662 1.662 0 0 1-.636 1.398 1.23 1.23 0 0 1-.757.235v-.032zm.427-.972a1.27 1.27 0 0 0 .152-.635 1.213 1.213 0 0 0-.152-.635.47.47 0 0 0-.427-.267.484.484 0 0 0-.432.267c-.108.194-.16.413-.152.635-.006.222.047.44.152.635a.496.496 0 0 0 .432.267.483.483 0 0 0 .427-.267zm-6.39-4.846v-2.3l-.642.3v-.776l.737-.374h.706v3.15h-.801zm5.85 0v-2.3l-.643.3v-.776l.738-.374h.7v3.15h-.796zm6.035.057a1.273 1.273 0 0 1-.757-.235 1.423 1.423 0 0 1-.477-.635 1.974 1.974 0 0 1-.153-.8 1.676 1.676 0 0 1 .636-1.398 1.28 1.28 0 0 1 .757-.235c.273-.005.54.077.763.235a1.4 1.4 0 0 1 .477.636c.103.25.155.517.152.787a1.68 1.68 0 0 1-.635 1.404c-.223.158-.49.24-.763.235v.006zm.432-1.01a1.383 1.383 0 0 0 0-1.27.484.484 0 0 0-.858 0 1.383 1.383 0 0 0 0 1.27.477.477 0 0 0 .426.26.483.483 0 0 0 .432-.26zm5.201.953v-2.3l-.649.3v-.776l.738-.374h.706v3.15h-.795zm5.97 0v-2.3l-.642.3v-.776l.738-.374h.705v3.15h-.8zm-11.845 5.761v-2.293l-.643.292v-.775l.738-.374h.706v3.15h-.802zm-11.643 0v-2.293l-.642.292v-.775l.737-.374h.706v3.15h-.801zm17.886.057a1.273 1.273 0 0 1-.763-.235 1.424 1.424 0 0 1-.477-.603 2.075 2.075 0 0 1-.14-.775 1.662 1.662 0 0 1 .636-1.398c.222-.16.49-.245.763-.24.272-.006.538.079.757.24.22.16.385.381.477.636.107.25.16.521.153.794a1.662 1.662 0 0 1-.636 1.397c-.22.16-.486.242-.757.235l-.013-.05zm.44-.953a1.27 1.27 0 0 0 .152-.635 1.213 1.213 0 0 0-.153-.635.47.47 0 0 0-.426-.267.483.483 0 0 0-.432.267 1.216 1.216 0 0 0-.153.635c-.005.222.047.44.153.635a.494.494 0 0 0 .432.267.485.485 0 0 0 .426-.267zm5.279.953a1.272 1.272 0 0 1-.764-.235 1.473 1.473 0 0 1-.476-.603 2.075 2.075 0 0 1-.134-.775 1.662 1.662 0 0 1 .636-1.398 1.323 1.323 0 0 1 1.526 0c.22.16.385.381.477.636.104.251.156.521.153.793a1.663 1.663 0 0 1-.636 1.398c-.223.158-.49.24-.763.235l-.02-.05zm.445-.953a1.18 1.18 0 0 0 .152-.635 1.155 1.155 0 0 0-.152-.635.465.465 0 0 0-.426-.267.47.47 0 0 0-.426.267 1.158 1.158 0 0 0-.153.635c-.01.222.043.442.153.635a.483.483 0 0 0 .426.267.47.47 0 0 0 .426-.267zm-12.42 6.714a1.222 1.222 0 0 1-.757-.241 1.441 1.441 0 0 1-.484-.635 2.055 2.055 0 0 1-.152-.794 1.669 1.669 0 0 1 .636-1.398c.218-.162.484-.247.756-.241a1.27 1.27 0 0 1 .763.241c.213.152.379.362.477.604.103.252.155.522.153.794a1.664 1.664 0 0 1-.636 1.397c-.222.16-.49.245-.763.242l.006.031zm.425-1.022a1.18 1.18 0 0 0 .153-.636 1.167 1.167 0 0 0-.153-.635.465.465 0 0 0-.426-.267.471.471 0 0 0-.426.267 1.23 1.23 0 0 0-.152.636c-.006.22.047.44.152.635a.471.471 0 0 0 .426.266.464.464 0 0 0 .426-.266zm-6.129.959v-2.293l-.643.298v-.781l.738-.375h.7v3.15h-.795zm.102 11.7a1.272 1.272 0 0 1-.763-.235 1.473 1.473 0 0 1-.477-.604 2.076 2.076 0 0 1-.153-.794 1.682 1.682 0 0 1 .636-1.404 1.355 1.355 0 0 1 1.526 0c.215.164.38.384.477.636.104.251.156.521.153.794a1.674 1.674 0 0 1-.636 1.397c-.223.158-.49.24-.763.235v-.026zm.426-.979a1.384 1.384 0 0 0 0-1.27.463.463 0 0 0-.426-.26.477.477 0 0 0-.426.26 1.383 1.383 0 0 0 0 1.27.477.477 0 0 0 .426.26.464.464 0 0 0 .426-.26zm-6.454.921v-2.299l-.642.299v-.775l.737-.375h.706v3.15h-.801zm-5.973 0v-2.299l-.642.299v-.775l.738-.375h.7v3.15h-.796zm12.001 11.567a1.273 1.273 0 0 1-.763-.235 1.473 1.473 0 0 1-.477-.604 2.076 2.076 0 0 1-.153-.794 1.682 1.682 0 0 1 .636-1.403 1.355 1.355 0 0 1 1.526 0c.215.163.38.383.477.635.104.252.156.522.153.794a1.675 1.675 0 0 1-.636 1.397c-.223.158-.49.24-.763.235v-.025zm.426-.978a1.384 1.384 0 0 0 0-1.27.463.463 0 0 0-.426-.261.478.478 0 0 0-.426.26 1.383 1.383 0 0 0 0 1.27.476.476 0 0 0 .426.261.465.465 0 0 0 .426-.26zm23.216.978a1.273 1.273 0 0 1-.763-.235 1.423 1.423 0 0 1-.477-.604 2.074 2.074 0 0 1-.152-.794 1.68 1.68 0 0 1 .636-1.403c.222-.159.49-.24.763-.235.27-.005.536.078.756.235.217.161.383.382.477.635.11.25.164.52.16.794a1.682 1.682 0 0 1-.637 1.397c-.22.157-.485.24-.756.235l-.007-.025zm.433-.978a1.383 1.383 0 0 0 0-1.27.477.477 0 0 0-.852 0 1.339 1.339 0 0 0 0 1.27.477.477 0 0 0 .852 0zM24.248 37.03a1.235 1.235 0 0 1-.757-.235 1.423 1.423 0 0 1-.477-.603 1.961 1.961 0 0 1-.152-.794 1.682 1.682 0 0 1 .635-1.404c.221-.157.486-.239.757-.235.273-.005.54.077.763.235a1.4 1.4 0 0 1 .477.636c.104.251.156.521.153.793a1.662 1.662 0 0 1-.636 1.398c-.223.158-.49.24-.763.235v-.026zm.432-.978a1.27 1.27 0 0 0 .153-.635 1.212 1.212 0 0 0-.153-.635.477.477 0 0 0-.432-.267.47.47 0 0 0-.426.267 1.214 1.214 0 0 0-.153.635c-.005.221.047.44.153.635a.483.483 0 0 0 .426.267.49.49 0 0 0 .432-.267zm-12.19 6.67v-2.293l-.642.292v-.775l.737-.375h.706v3.15h-.801zm-5.973 0v-2.293l-.642.292v-.775l.738-.375h.7v3.15h-.796zm11.999 5.945a1.273 1.273 0 0 1-.763-.242 1.475 1.475 0 0 1-.477-.603 2.056 2.056 0 0 1-.153-.794 1.662 1.662 0 0 1 .636-1.397 1.324 1.324 0 0 1 1.526 0c.211.154.376.362.477.603.103.252.155.522.153.794a1.662 1.662 0 0 1-.636 1.398c-.222.16-.49.244-.763.24zm.426-1.01a1.18 1.18 0 0 0 .153-.635 1.168 1.168 0 0 0-.153-.635.464.464 0 0 0-.426-.267.471.471 0 0 0-.426.267c-.11.193-.163.413-.153.635-.01.222.043.442.153.635a.47.47 0 0 0 .426.267.464.464 0 0 0 .426-.267zm5.191.946V46.31l-.643.299v-.781l.738-.375h.706v3.15h-.802zm-11.643 0V46.31l-.642.299v-.781l.737-.375h.706v3.15h-.801zm-5.973 0V46.31l-.642.299v-.781l.738-.375h.7v3.15h-.796zM30.008 19.57v-2.293l-.649.298v-.781l.738-.375h.706v3.15h-.795zm6.087.063a1.273 1.273 0 0 1-.764-.241 1.475 1.475 0 0 1-.476-.635 2.055 2.055 0 0 1-.134-.782 1.662 1.662 0 0 1 .636-1.397 1.324 1.324 0 0 1 1.526 0c.213.152.378.361.477.603.103.252.155.522.153.794a1.662 1.662 0 0 1-.636 1.398c-.222.16-.49.245-.763.241l-.02.02zm.445-1.029a1.18 1.18 0 0 0 .152-.635 1.168 1.168 0 0 0-.152-.635.465.465 0 0 0-.426-.267.47.47 0 0 0-.426.267c-.11.193-.164.413-.153.635-.01.222.043.442.153.635a.471.471 0 0 0 .426.267.464.464 0 0 0 .426-.267zm5.62-4.732a1.273 1.273 0 0 1-.762-.235 1.424 1.424 0 0 1-.478-.603 2.077 2.077 0 0 1-.152-.794 1.662 1.662 0 0 1 .636-1.398c.222-.16.49-.245.763-.241.272-.005.538.08.757.241.219.16.385.381.477.636.109.25.163.52.158.793a1.669 1.669 0 0 1-.635 1.398c-.22.16-.486.242-.757.235l-.007-.032zm.433-.972a1.27 1.27 0 0 0 .153-.635 1.212 1.212 0 0 0-.153-.635.47.47 0 0 0-.852 0 1.156 1.156 0 0 0-.16.635c-.007.223.048.443.16.635a.47.47 0 0 0 .852 0zm-.433 6.733a1.272 1.272 0 0 1-.762-.241 1.424 1.424 0 0 1-.478-.635 2.058 2.058 0 0 1-.152-.794 1.662 1.662 0 0 1 .636-1.398c.222-.16.49-.245.763-.241.272-.005.538.08.757.241.212.152.378.362.477.604.108.25.162.52.158.794a1.67 1.67 0 0 1-.635 1.397 1.234 1.234 0 0 1-.757.241l-.007.032zm.433-1.041a1.28 1.28 0 0 0 .153-.636 1.231 1.231 0 0 0-.153-.635.47.47 0 0 0-.852 0 1.167 1.167 0 0 0-.16.635c-.007.223.048.443.16.636a.47.47 0 0 0 .852 0zm-.433 6.796a1.272 1.272 0 0 1-.762-.242 1.385 1.385 0 0 1-.478-.635 2.058 2.058 0 0 1-.152-.794 1.662 1.662 0 0 1 .636-1.397c.222-.16.49-.245.763-.241.272-.006.538.08.757.241.212.152.378.361.477.603.108.251.162.522.158.794a1.669 1.669 0 0 1-.635 1.398 1.234 1.234 0 0 1-.757.241l-.007.032zm.433-1.042c.107-.194.16-.413.153-.635a1.269 1.269 0 0 0-.153-.635.47.47 0 0 0-.852 0 1.186 1.186 0 0 0-.16.635c-.008.223.047.443.16.635a.47.47 0 0 0 .852 0zm-.433 6.924a1.272 1.272 0 0 1-.763-.236 1.423 1.423 0 0 1-.477-.603 2.074 2.074 0 0 1-.152-.794 1.68 1.68 0 0 1 .636-1.404c.222-.158.49-.24.763-.235.27-.004.536.078.756.235a1.4 1.4 0 0 1 .477.636c.11.25.164.52.16.794a1.681 1.681 0 0 1-.637 1.397c-.22.157-.485.239-.756.235l-.007-.026zm.433-.979a1.383 1.383 0 0 0 0-1.27.477.477 0 0 0-.852 0 1.34 1.34 0 0 0 0 1.27.477.477 0 0 0 .852 0zm-.631-22.18a1.273 1.273 0 0 1-.756-.235 1.424 1.424 0 0 1-.477-.635 1.974 1.974 0 0 1-.153-.8 1.676 1.676 0 0 1 .636-1.398c.22-.156.486-.239.757-.235.273-.005.54.077.763.235.217.162.382.382.477.636.103.25.155.517.152.787a1.68 1.68 0 0 1-.636 1.404c-.222.158-.49.24-.763.235v.006zm.433-1.01a1.383 1.383 0 0 0 0-1.27.484.484 0 0 0-.859 0 1.383 1.383 0 0 0 0 1.27.483.483 0 0 0 .859 0zM.642 19.57v-2.293L0 17.575v-.781l.738-.375h.705v3.15h-.8zm5.875 0v-2.293l-.642.298v-.781l.738-.375h.7v3.15h-.796zm5.973 0v-2.293l-.642.298v-.781l.737-.375h.706v3.15h-.801zM.642 25.324v-2.293L0 23.33v-.781l.738-.375h.705v3.15h-.8zm0 5.888v-2.299L0 29.212v-.775l.738-.375h.705v3.15h-.8zm5.875-5.888v-2.293l-.642.299v-.781l.738-.375h.7v3.15h-.796zm5.973 0v-2.293l-.642.299v-.781l.737-.375h.706v3.15h-.801zM.642 36.98v-2.293L0 34.985v-.78l.738-.37h.705v3.145h-.8zm0 5.742v-2.293L0 40.72v-.775l.738-.375h.705v3.15h-.8zm0 5.85v-2.293L0 46.57v-.775l.738-.375h.705v3.15h-.8zm30.04.057a1.273 1.273 0 0 1-.763-.235 1.424 1.424 0 0 1-.477-.604 2.076 2.076 0 0 1-.153-.794 1.663 1.663 0 0 1 .636-1.397c.222-.16.49-.245.763-.241.272-.005.538.08.757.241.214.15.38.36.477.603.107.251.16.522.153.794a1.662 1.662 0 0 1-.636 1.398c-.22.16-.486.242-.757.235zm.426-1.004a1.27 1.27 0 0 0 .153-.635 1.213 1.213 0 0 0-.153-.635.47.47 0 0 0-.426-.267.484.484 0 0 0-.432.267 1.214 1.214 0 0 0-.153.635c-.005.221.047.44.153.635a.495.495 0 0 0 .432.267.483.483 0 0 0 .426-.267zm5.302 1.004a1.273 1.273 0 0 1-.762-.235 1.423 1.423 0 0 1-.477-.604 2.076 2.076 0 0 1-.153-.794 1.662 1.662 0 0 1 .636-1.397c.222-.16.49-.245.763-.241.272-.005.538.08.757.241.214.15.38.36.477.603a1.9 1.9 0 0 1 .158.794 1.669 1.669 0 0 1-.635 1.398c-.22.16-.486.242-.757.235h-.007zm.433-1.004a1.27 1.27 0 0 0 .153-.635 1.213 1.213 0 0 0-.153-.635.47.47 0 0 0-.852 0 1.154 1.154 0 0 0-.16.635 1.19 1.19 0 0 0 .16.635.47.47 0 0 0 .852 0zm-6.835-4.903v-2.293l-.649.292v-.775l.738-.375h.706v3.15h-.795zm-5.875 0v-2.293l-.643.292v-.775l.738-.375h.706v3.15h-.802zm11.845 0v-2.293l-.642.292v-.775l.738-.375h.705v3.15h-.8zm5.742 5.85v-2.293l-.642.292v-.775l.738-.375h.706v3.15h-.802zM30.047 37.03a1.273 1.273 0 0 1-.763-.235 1.423 1.423 0 0 1-.477-.603 2.076 2.076 0 0 1-.152-.794 1.682 1.682 0 0 1 .635-1.404c.223-.158.49-.24.763-.235.271-.004.536.078.757.235a1.4 1.4 0 0 1 .477.636c.107.25.16.52.153.793a1.662 1.662 0 0 1-.636 1.398c-.22.16-.486.242-.757.235v-.026zm.426-.978c.106-.195.158-.413.153-.635a1.21 1.21 0 0 0-.153-.635.47.47 0 0 0-.426-.267.482.482 0 0 0-.432.267 1.214 1.214 0 0 0-.153.635c-.005.221.047.44.153.635a.496.496 0 0 0 .432.267.484.484 0 0 0 .426-.267zm5.505.915v-2.293l-.642.292v-.775l.738-.374h.705v3.15h-.8zm-5.97-5.755v-2.299l-.649.299v-.775l.738-.375h.706v3.15h-.795zm-5.875 0v-2.299l-.643.299v-.775l.738-.375h.706v3.15h-.802zm11.845 0v-2.299l-.642.299v-.775l.738-.375h.705v3.15h-.8zm-5.614-5.824a1.272 1.272 0 0 1-.763-.242 1.385 1.385 0 0 1-.477-.635 2.054 2.054 0 0 1-.153-.794 1.662 1.662 0 0 1 .636-1.397c.222-.16.49-.245.763-.241.272-.006.538.08.757.241.213.152.378.361.477.603.106.251.158.522.152.794a1.663 1.663 0 0 1-.636 1.398 1.235 1.235 0 0 1-.756.241v.032zm.426-1.042a1.23 1.23 0 0 0 .152-.635 1.27 1.27 0 0 0-.152-.635.47.47 0 0 0-.426-.267.484.484 0 0 0-.433.267 1.27 1.27 0 0 0-.152.635c-.008.222.045.441.152.635a.483.483 0 0 0 .684.195.471.471 0 0 0 .175-.195zm5.304 1.042a1.272 1.272 0 0 1-.763-.242 1.385 1.385 0 0 1-.477-.635 2.056 2.056 0 0 1-.152-.794 1.662 1.662 0 0 1 .635-1.397c.222-.16.49-.245.763-.241.273-.006.538.08.757.241.213.152.378.361.477.603.108.251.162.522.16.794a1.669 1.669 0 0 1-.637 1.398 1.234 1.234 0 0 1-.757.241l-.006.032zm.433-1.042c.107-.194.16-.413.152-.635a1.27 1.27 0 0 0-.152-.635.47.47 0 0 0-.852 0 1.186 1.186 0 0 0-.16.635c-.008.223.047.443.16.635a.47.47 0 0 0 .852 0zm-18.83.978v-2.293l-.642.299v-.781l.737-.375h.706v3.15h-.801zm6.485.064a1.272 1.272 0 0 1-.763-.242 1.385 1.385 0 0 1-.477-.635 2.056 2.056 0 0 1-.153-.794 1.663 1.663 0 0 1 .636-1.397 1.324 1.324 0 0 1 1.526 0c.211.154.376.363.477.603.103.252.155.522.153.794a1.662 1.662 0 0 1-.636 1.398c-.222.16-.49.245-.763.241v.032zm.426-1.042c.107-.194.16-.413.153-.635a1.27 1.27 0 0 0-.153-.635.464.464 0 0 0-.426-.267.47.47 0 0 0-.426.267 1.18 1.18 0 0 0-.153.635c-.01.222.043.442.153.635a.47.47 0 0 0 .426.267.464.464 0 0 0 .426-.267zM41.963 37.03a1.235 1.235 0 0 1-.757-.235 1.423 1.423 0 0 1-.477-.603 1.96 1.96 0 0 1-.153-.794 1.68 1.68 0 0 1 .636-1.404c.221-.157.486-.239.757-.235.273-.005.54.077.763.235a1.4 1.4 0 0 1 .477.636c.103.251.155.521.153.793a1.663 1.663 0 0 1-.636 1.398c-.223.158-.49.24-.763.235v-.026zm.432-.978a1.27 1.27 0 0 0 .153-.635 1.212 1.212 0 0 0-.153-.635.476.476 0 0 0-.859 0c-.108.194-.16.413-.152.635-.005.221.047.44.152.635a.477.477 0 0 0 .859 0zm-35.878.928v-2.293l-.642.298v-.78l.738-.37h.7v3.145h-.796zm5.973 0v-2.293l-.642.298v-.78l.737-.37h.706v3.145h-.801zm5.963.05a1.273 1.273 0 0 1-.763-.24 1.386 1.386 0 0 1-.477-.604 2.056 2.056 0 0 1-.152-.794 1.662 1.662 0 0 1 .636-1.398c.222-.16.49-.245.763-.24.272-.006.538.079.757.24a1.4 1.4 0 0 1 .477.604c.105.251.158.522.152.794a1.662 1.662 0 0 1-.636 1.397 1.234 1.234 0 0 1-.757.242zm.427-1.01a1.22 1.22 0 0 0 .152-.635 1.27 1.27 0 0 0-.152-.635.47.47 0 0 0-.427-.266.484.484 0 0 0-.432.266 1.27 1.27 0 0 0-.152.636c-.008.221.045.44.152.635a.484.484 0 0 0 .684.195.47.47 0 0 0 .175-.195zm61.344-11.858v-3.43H67.373V4.712h2.524V18.42h7.88V4.713h2.517V18.42h2.315v5.742h-2.385zm14.307-3.43V4.712h2.525v11.764l8.82-11.763h2.2v16.019h-2.525V8.924l-8.864 11.808H94.53z" fill="#fff"/></svg>